<?xml version="1.0" encoding="UTF-8"?>
<svg version="1.1" xmlns="http://www.w3.org/2000/svg" width="704" height="384">
<path d="M0 0 C7.26477274 7.00651961 12.02639504 15.81972755 17.125 24.4375 C17.86730092 25.68544441 18.6099983 26.93315304 19.35302734 28.18066406 C22.66812772 33.7481183 25.97896313 39.31804949 29.27514648 44.89672852 C33.15280708 51.45732344 37.03180747 58.00812038 41.125 64.4375 C47.41520703 74.32599755 53.3014066 84.46505741 59.26750183 94.55078125 C66.68528342 107.0898433 74.18660917 119.57828916 81.73754883 132.03759766 C82.46038447 133.23110552 83.18237589 134.42512505 83.90356445 135.61962891 C88.15744617 142.66467412 92.47358568 149.64570048 97.125 156.4375 C97.59284912 155.63755615 98.06069824 154.8376123 98.54272461 154.01342773 C102.29499277 147.59962947 106.0494444 141.18711166 109.80859375 134.77734375 C110.17170151 134.15758163 110.53480927 133.53781952 110.90892029 132.89927673 C114.10644153 127.44957531 117.35919237 122.03399389 120.625 116.625 C124.34386415 110.42689309 127.97458832 104.17607187 131.625 97.9375 C136.66902346 89.31776976 141.73019381 80.71087072 146.890625 72.16015625 C149.83434844 67.27176634 152.7257115 62.35231898 155.625 57.4375 C163.82531573 43.54219506 163.82531573 43.54219506 167.52905273 37.42553711 C169.97100132 33.38788153 172.35915762 29.3217968 174.73046875 25.2421875 C176.04944464 22.9947714 177.36845524 20.74737568 178.6875 18.5 C179.30093262 17.43289795 179.91436523 16.3657959 180.54638672 15.26635742 C187.00622661 4.3166448 194.21724479 -3.74645648 206.75 -7.30859375 C215.41766668 -9.1353549 224.45379888 -9.39528076 233.125 -7.5625 C233.12646656 -6.42851115 233.12793312 -5.2945223 233.12944412 -4.12617016 C233.16606132 23.48368815 233.22554016 51.09342537 233.30890274 78.70318317 C233.34868887 92.05514154 233.38108358 105.40702195 233.39599609 118.7590332 C233.40901474 130.39849318 233.43598511 142.03782354 233.47961307 153.67721051 C233.50222279 159.83850341 233.51791095 165.99963644 233.51688385 172.1609745 C233.51613697 177.96486294 233.53409964 183.76839805 233.56616783 189.57219505 C233.57465904 191.69774641 233.57642209 193.82333743 233.57080269 195.94889832 C233.54305304 208.06252967 233.60129325 218.25278929 240.25 228.8125 C249.58109306 237.33219367 263.93843525 240.18936874 276.37109375 239.7265625 C294.38828452 237.83539638 309.07915654 233.4452178 321.875 219.6875 C329.27081275 210.52657681 334.52162988 199.95451843 339.9375 189.5625 C340.48156494 188.51924561 341.02562988 187.47599121 341.58618164 186.40112305 C345.22945366 179.32752153 348.69257113 172.17958862 352.10546875 164.9921875 C356.49642061 155.75386366 361.01043782 146.58142106 365.59375 137.4375 C365.91916464 136.78813351 366.24457928 136.13876701 366.57985497 135.46972275 C369.26316595 130.11702787 371.95171665 124.76696877 374.64044189 119.41699219 C376.98144728 114.7583647 379.32046271 110.09874617 381.65625 105.4375 C382.14339761 104.46548582 382.14339761 104.46548582 382.64038658 103.47383499 C387.28976461 94.18918412 391.83197214 84.85814864 396.28413391 75.47714233 C400.81926968 65.93444194 405.55651674 56.49657559 410.3125 47.0625 C415.47411735 36.82272552 420.57447601 26.57022558 425.41972351 16.17643738 C427.84210154 10.99452963 430.39913043 5.90476289 433.125 0.875 C433.51816406 0.14087891 433.91132812 -0.59324219 434.31640625 -1.34960938 C435.24878508 -3.08929182 436.18625005 -4.82624719 437.125 -6.5625 C438.115 -6.5625 439.105 -6.5625 440.125 -6.5625 C445.18558853 4.05558239 450.18383465 14.70080121 455.125 25.375 C460.20146499 36.33563519 465.33570522 47.26798642 470.5 58.1875 C475.97408525 69.76347907 481.44033249 81.34295247 486.875 92.9375 C487.1842038 93.59715759 487.49340759 94.25681519 487.8119812 94.9364624 C492.083308 104.05203915 496.32978567 113.17891974 500.5625 122.3125 C506.99476409 136.19113725 513.50711837 150.03148629 520.02989197 163.86775208 C522.45001829 169.00226343 524.86486151 174.13923691 527.27734375 179.27734375 C533.24249367 191.97853048 539.2183071 204.67254182 545.3125 217.3125 C549.40116313 225.81320745 553.47430248 234.3212815 557.48477173 242.85919189 C558.07287868 244.10830679 558.66363178 245.35617965 559.25717163 246.60272217 C560.07982265 248.33193888 560.89171319 250.0662623 561.703125 251.80078125 C562.40550293 253.29025269 562.40550293 253.29025269 563.12207031 254.80981445 C564.125 257.4375 564.125 257.4375 564.125 261.4375 C549.605 261.4375 535.085 261.4375 520.125 261.4375 C513.81020673 249.43939278 507.74424683 237.60197682 502.25 225.25 C501.29011014 223.10532207 500.32844651 220.96145721 499.36520386 218.81828308 C498.77741311 217.50917484 498.19169426 216.19913304 497.6086731 214.88789368 C495.56909861 210.32660419 493.36553826 205.91857652 491.125 201.4375 C460.105 201.1075 429.085 200.7775 397.125 200.4375 C396.125 197.4375 396.125 197.4375 397.57202148 193.97583008 C398.28665263 192.54781846 399.01184817 191.12505744 399.74609375 189.70703125 C400.08129028 189.04167358 400.41648682 188.37631592 400.76184082 187.6907959 C402.0178293 185.20499421 403.29122127 182.72801684 404.5625 180.25 C408.8009375 171.9278125 408.8009375 171.9278125 413.125 163.4375 C433.255 163.4375 453.385 163.4375 474.125 163.4375 C470.165 155.5175 470.165 155.5175 466.125 147.4375 C464.79567188 144.56679374 463.48701848 141.70870785 462.23046875 138.80859375 C461.58351084 137.33731448 460.93653765 135.86604193 460.28955078 134.39477539 C459.9663385 133.65566925 459.64312622 132.91656311 459.31011963 132.15505981 C453.18139178 118.14785138 446.85953893 104.26536217 440.10791016 90.54516602 C439.01869478 88.20954844 438.06238165 85.83760618 437.125 83.4375 C430.65362693 95.55596048 424.43256241 107.76840579 418.45162964 120.13604736 C416.27882225 124.62895335 414.09611312 129.11704651 411.9140625 133.60546875 C411.28083321 134.90883179 411.28083321 134.90883179 410.6348114 136.23852539 C407.49061627 142.70377007 404.29899658 149.14289234 401.0625 155.5625 C397.50419313 162.6298354 394.03414665 169.73446984 390.625 176.875 C389.94328735 178.30175049 389.94328735 178.30175049 389.24780273 179.75732422 C386.93608322 184.60605621 384.64388771 189.46310781 382.375 194.33203125 C374.43815024 211.28764426 366.08004861 227.91448969 354.125 242.4375 C353.43148438 243.29472656 352.73796875 244.15195312 352.0234375 245.03515625 C336.19357691 263.65682861 313.15234092 274.31027225 289.125 277.4375 C261.77708335 279.2759813 234.74990186 276.17069369 212.875 258.125 C211.9675 257.238125 211.06 256.35125 210.125 255.4375 C210.125 254.7775 210.125 254.1175 210.125 253.4375 C209.465 253.4375 208.805 253.4375 208.125 253.4375 C195.02815615 238.49032942 191.670398 221.27215788 191.69262695 201.97485352 C191.68357767 200.6031915 191.6732429 199.23153746 191.66174316 197.8598938 C191.63451778 194.18938921 191.62493645 190.51903941 191.61888909 186.84844708 C191.60941413 182.9927304 191.58320457 179.13712535 191.55888367 175.28147888 C191.51546304 168.00401965 191.4867669 160.72658239 191.46356028 153.44903368 C191.4363764 145.15373616 191.3924739 136.85855233 191.34727156 128.56333649 C191.25477594 111.52144983 191.18293592 94.47953852 191.125 77.4375 C189.37083705 80.14407298 187.61747958 82.85116689 185.86425781 85.55834961 C185.37168488 86.31834007 184.87911194 87.07833054 184.37161255 87.86135101 C180.48010799 93.87160185 176.65480798 99.9187832 172.875 106 C171.59247015 108.05730553 170.30991738 110.11459677 169.02734375 112.171875 C168.38394043 113.20505859 167.74053711 114.23824219 167.07763672 115.30273438 C163.86859592 120.45453281 160.65355477 125.60257797 157.4375 130.75 C156.81133789 131.75232666 156.18517578 132.75465332 155.54003906 133.78735352 C151.27267176 140.61368819 146.98085786 147.42414728 142.67626953 154.22705078 C136.78299256 163.54779026 130.94897639 172.90552971 125.10986328 182.26025391 C123.03273007 185.58519999 120.95230422 188.90807432 118.87109375 192.23046875 C118.18120361 193.33237549 117.49131348 194.43428223 116.78051758 195.56958008 C115.44899586 197.6961405 114.11682446 199.82229429 112.78393555 201.94799805 C112.18750244 202.90101807 111.59106934 203.85403809 110.9765625 204.8359375 C110.44885254 205.67817871 109.92114258 206.52041992 109.37744141 207.38818359 C108.10967225 209.39746497 108.10967225 209.39746497 107.125 211.4375 C88.9463009 214.09562657 88.9463009 214.09562657 83.21289062 210.10742188 C79.76340239 206.26445589 77.61601979 201.63859037 75.40869141 197.00830078 C73.17743168 192.53984035 70.42815544 188.39749262 67.75 184.1875 C66.64539923 182.40291869 65.54385648 180.61644109 64.4453125 178.828125 C61.18070117 173.52576743 57.90410402 168.23090372 54.625 162.9375 C51.36032982 157.66588058 48.09708732 152.39339969 44.83984375 147.1171875 C39.66447928 138.73831941 34.46594934 130.37686864 29.1875 122.0625 C23.52373455 113.1357181 18.02490833 104.11194726 12.546875 95.0703125 C10.01818595 90.89843964 7.46983956 86.73895733 4.91113281 82.58544922 C4.54500885 81.99082382 4.17888489 81.39619843 3.80166626 80.78355408 C2.90959339 79.3347775 2.01731797 77.88612564 1.125 76.4375 C1.12076806 77.38486495 1.11653612 78.3322299 1.11217594 79.30830288 C1.00913319 102.32474797 0.90040448 125.3411608 0.78566074 148.35755062 C0.73030492 159.48794933 0.67681911 170.61835124 0.62768555 181.7487793 C0.58487254 191.44632232 0.53860195 201.1438415 0.48812145 210.84134775 C0.4614972 215.97946432 0.43664364 221.11757608 0.41592598 226.25572014 C0.39639508 231.08601763 0.37226216 235.91626968 0.34450912 240.74652672 C0.33511982 242.52474902 0.32745136 244.30298132 0.32158089 246.08121872 C0.31335148 248.49816085 0.29908406 250.9149917 0.28321838 253.33189392 C0.28224028 254.04491557 0.28126217 254.75793721 0.28025442 255.49256557 C0.23912121 260.32337879 0.23912121 260.32337879 -0.875 261.4375 C-3.74764056 261.53856874 -6.59573628 261.57719672 -9.46875 261.5703125 C-10.33060913 261.57126923 -11.19246826 261.57222595 -12.08044434 261.57321167 C-13.90633212 261.5738935 -15.73222231 261.57203904 -17.55810547 261.56787109 C-20.36301078 261.56252286 -23.16775595 261.56781599 -25.97265625 261.57421875 C-27.74218786 261.57355797 -29.51171936 261.57227681 -31.28125 261.5703125 C-32.12602905 261.57233673 -32.97080811 261.57436096 -33.84118652 261.57644653 C-39.76004969 261.55245031 -39.76004969 261.55245031 -40.875 260.4375 C-40.97162242 259.00399935 -40.99871827 257.56574998 -40.99804783 256.12899685 C-41.00003888 255.19345579 -41.00202993 254.25791472 -41.00408131 253.29402393 C-40.99971205 251.73423198 -40.99971205 251.73423198 -40.99525452 250.14292908 C-40.99610894 249.04768262 -40.99696337 247.95243616 -40.99784368 246.82400042 C-40.99950171 243.12345477 -40.99397186 239.42295363 -40.98852539 235.72241211 C-40.98824356 233.08190305 -40.98835705 230.44139678 -40.9889679 227.80088806 C-40.98949332 222.10034149 -40.9863446 216.39980632 -40.98073006 210.69926262 C-40.97261754 202.45714187 -40.97000009 194.21502667 -40.96874207 185.97290237 C-40.96655115 172.60196759 -40.95989001 159.23103889 -40.95043945 145.86010742 C-40.94126635 132.86824575 -40.93418502 119.87638574 -40.92993164 106.88452148 C-40.92953756 105.68414335 -40.92953756 105.68414335 -40.92913551 104.45951515 C-40.92783051 100.4450547 -40.92656679 96.43059423 -40.92532361 92.41613376 C-40.91494977 59.08991809 -40.8973304 25.76370979 -40.875 -7.5625 C-39.12528774 -7.73091766 -37.37531768 -7.89665819 -35.62524414 -8.0612793 C-34.65075821 -8.1538652 -33.67627228 -8.24645111 -32.67225647 -8.34184265 C-20.5552369 -9.29767543 -9.6403999 -7.68481957 0 0 Z " fill="#C0972D" transform="translate(98.875,62.5625)"/>
<path d="M0 0 C1.81371094 -0.00386719 1.81371094 -0.00386719 3.6640625 -0.0078125 C5.53191406 0.00378906 5.53191406 0.00378906 7.4375 0.015625 C8.68273437 0.00789063 9.92796875 0.00015625 11.2109375 -0.0078125 C12.42007812 -0.00523438 13.62921875 -0.00265625 14.875 0 C15.96683594 0.00225586 17.05867188 0.00451172 18.18359375 0.00683594 C21.8055736 0.29489856 24.96362237 1.22890291 28.4375 2.265625 C28.64784515 29.73411116 28.80650049 57.20247642 28.90380955 84.67160606 C28.95019514 97.42636429 29.01342272 110.18062179 29.11645508 122.93505859 C29.20622704 134.05329369 29.26423992 145.1711661 29.28429645 156.28975356 C29.2960187 162.17588874 29.32351994 168.06098649 29.38907051 173.94678879 C29.45031152 179.49072499 29.46897392 185.03319983 29.45546913 190.57744217 C29.45793843 192.60836997 29.47575308 194.6393483 29.51034927 196.66998291 C29.78950234 213.90518291 29.78950234 213.90518291 24.18223572 220.33804321 C14.04275048 229.60162344 2.16166736 234.17031828 -11.5625 234.265625 C-12.2225 233.935625 -12.8825 233.605625 -13.5625 233.265625 C-13.5625 157.035625 -13.5625 80.805625 -13.5625 2.265625 C-8.26198834 0.7511931 -5.22309393 0.01079152 0 0 Z " fill="#BE962D" transform="translate(384.5625,53.734375)"/>
<path d="M0 0 C1.87461914 -0.01836914 1.87461914 -0.01836914 3.78710938 -0.03710938 C5.60758789 -0.04000977 5.60758789 -0.04000977 7.46484375 -0.04296875 C8.56304443 -0.04707764 9.66124512 -0.05118652 10.79272461 -0.05541992 C14.42799145 0.21465329 17.5781039 1.14627727 21.0625 2.1875 C21.27284515 29.65598616 21.43150049 57.12435142 21.52880955 84.59348106 C21.57519514 97.34823929 21.63842272 110.10249679 21.74145508 122.85693359 C21.83122704 133.97516869 21.88923992 145.0930411 21.90929645 156.21162856 C21.9210187 162.09776374 21.94851994 167.98286149 22.01407051 173.86866379 C22.07531152 179.41259999 22.09397392 184.95507483 22.08046913 190.49931717 C22.08293843 192.53024497 22.10075308 194.5612233 22.13534927 196.59185791 C22.41454692 213.82981054 22.41454692 213.82981054 16.70567322 220.30679321 C14.31881618 222.46163368 14.31881618 222.46163368 12.0625 224.1875 C11.18215261 224.93211015 11.18215261 224.93211015 10.28402042 225.69176292 C8.75 226.875 8.75 226.875 6.0625 228.1875 C3.89453125 227.76953125 3.89453125 227.76953125 2.0625 227.1875 C2.89394531 226.65640625 3.72539062 226.1253125 4.58203125 225.578125 C5.66871094 224.87171875 6.75539063 224.1653125 7.875 223.4375 C8.95394531 222.74140625 10.03289062 222.0453125 11.14453125 221.328125 C13.95371455 219.26730512 15.38609062 218.18344782 17.0625 215.1875 C17.35735422 212.27308614 17.47859933 209.57245608 17.46122742 206.65814209 C17.46787424 205.78901129 17.47452107 204.91988049 17.48136932 204.02441239 C17.50004801 201.1069768 17.49739075 198.18994958 17.49487305 195.27246094 C17.50388723 193.18322162 17.51421359 191.09398761 17.52575684 189.00476074 C17.5533933 183.32747885 17.56262039 177.65029712 17.56861091 171.97295666 C17.57797727 166.04184671 17.60417923 160.11081209 17.62861633 154.17974854 C17.67233287 142.94595181 17.70084819 131.71216967 17.72393972 120.47831368 C17.75096376 107.69002921 17.79487699 94.90182033 17.84022844 82.11358976 C17.9331486 55.80492311 18.00256587 29.4962639 18.0625 3.1875 C5.1925 3.5175 -7.6775 3.8475 -20.9375 4.1875 C-20.6075 3.1975 -20.2775 2.2075 -19.9375 1.1875 C-13.27789178 -0.06826173 -6.75692827 0.003474 0 0 Z " fill="#C6A530" transform="translate(391.9375,53.8125)"/>
<path d="M0 0 C2.475 0.99 2.475 0.99 5 2 C5.33 2.99 5.66 3.98 6 5 C5.01 4.67 4.02 4.34 3 4 C2.67 64.72 2.34 125.44 2 188 C1.34 188 0.68 188 0 188 C0 125.96 0 63.92 0 0 Z " fill="#B98F25" transform="translate(97,135)"/>
<path d="M0 0 C0.33 0 0.66 0 1 0 C1.33 3.96 1.66 7.92 2 12 C2.33 12 2.66 12 3 12 C3.21058029 30.21119711 3.36911362 48.42207671 3.46630955 66.63422966 C3.51264647 75.09120343 3.57577724 83.54741917 3.67895508 92.00390625 C3.76888058 99.37776563 3.82677536 106.75107587 3.84679645 114.12546837 C3.85849398 118.02769558 3.88582615 121.92835237 3.95157051 125.83007431 C4.01306014 129.50940224 4.03142756 133.18652668 4.01796913 136.86631966 C4.02159259 138.84708538 4.06982263 140.82761561 4.11978149 142.80775452 C4.04920932 149.65360032 3.25165458 153.50212329 -1.35682678 158.71194458 C-4.66483598 161.94538878 -7.83223728 164.964581 -12 167 C-14.16796875 166.58203125 -14.16796875 166.58203125 -16 166 C-14.75283203 165.20335937 -14.75283203 165.20335937 -13.48046875 164.390625 C-12.39378906 163.68421875 -11.30710937 162.9778125 -10.1875 162.25 C-9.10855469 161.55390625 -8.02960938 160.8578125 -6.91796875 160.140625 C-4.17480978 158.12824064 -2.71086768 156.88215498 -1 154 C-0.5419604 151.02311976 -0.5419604 151.02311976 -0.60127258 147.67254639 C-0.58873444 146.37126801 -0.57619629 145.06998962 -0.5632782 143.72927856 C-0.56445224 142.28924535 -0.56591138 140.84921235 -0.56762695 139.40917969 C-0.55860996 137.89135947 -0.54828289 136.37354655 -0.53674316 134.85574341 C-0.50913948 130.73625777 -0.49988411 126.61691017 -0.49388909 122.49734402 C-0.48451417 118.19179744 -0.45831151 113.88635433 -0.43388367 109.58087158 C-0.39019067 101.42826961 -0.36166093 93.27568769 -0.33856028 85.1230042 C-0.3115236 75.84128737 -0.26761117 66.55967448 -0.22227156 57.27803183 C-0.12938519 38.1854094 -0.05772275 19.09275948 0 0 Z " fill="#D6BF18" transform="translate(410,115)"/>
<path d="M0 0 C0.99 0 1.98 0 3 0 C3 46.2 3 92.4 3 140 C2.34 140 1.68 140 1 140 C0.67 95.45 0.34 50.9 0 5 C-0.99 5.33 -1.98 5.66 -3 6 C-1.125 1.125 -1.125 1.125 0 0 Z " fill="#B78F28" transform="translate(290,135)"/>
<path d="M0 0 C11.5005173 -0.04636246 23.00101232 -0.08188914 34.50160408 -0.10362434 C39.84192331 -0.1140567 45.18217854 -0.12820602 50.52246094 -0.15087891 C55.67715966 -0.17262665 60.83179687 -0.18457275 65.98653793 -0.18975449 C67.95209598 -0.19344676 69.9176507 -0.20065683 71.88318253 -0.21146011 C74.63850401 -0.2260006 77.39357204 -0.22797686 80.14892578 -0.22705078 C80.95956985 -0.23424133 81.77021393 -0.24143188 82.60542297 -0.24884033 C87.10769383 -0.23249098 90.80109466 0.16401252 95 2 C96.390625 3.953125 96.390625 3.953125 97.25 6.25 C97.559375 7.04792969 97.86875 7.84585937 98.1875 8.66796875 C98.455625 9.43753906 98.72375 10.20710938 99 11 C99.4125 12.175625 99.825 13.35125 100.25 14.5625 C100.4975 15.366875 100.745 16.17125 101 17 C100.34 17 99.68 17 99 17 C96.69 12.38 94.38 7.76 92 3 C61.64 2.67 31.28 2.34 0 2 C0 1.34 0 0.68 0 0 Z " fill="#B38C23" transform="translate(498,261)"/>
<path d="M0 0 C0.66 0 1.32 0 2 0 C5.125 5.5 5.125 5.5 4 10 C-16.13 10 -36.26 10 -57 10 C-57.33 11.32 -57.66 12.64 -58 14 C-58.52453093 15.26667222 -59.08367833 16.51942004 -59.671875 17.7578125 C-60.00445312 18.46172119 -60.33703125 19.16562988 -60.6796875 19.89086914 C-61.03289062 20.62813232 -61.38609375 21.36539551 -61.75 22.125 C-62.10835938 22.87966553 -62.46671875 23.63433105 -62.8359375 24.41186523 C-65.48686961 29.97655794 -68.1949081 35.51119036 -71 41 C-71.99 40.67 -72.98 40.34 -74 40 C-68.72 29.44 -63.44 18.88 -58 8 C-37.87 8 -17.74 8 3 8 C2.01 6.02 1.02 4.04 0 2 C0 1.34 0 0.68 0 0 Z " fill="#B78D23" transform="translate(570,218)"/>
<path d="M0 0 C1.87461914 -0.01836914 1.87461914 -0.01836914 3.78710938 -0.03710938 C9.91523974 -0.04687273 15.29816172 0.01406097 21.0625 2.1875 C20.51526317 5.56212715 20.0076 7.26985 18.0625 10.1875 C18.0625 7.8775 18.0625 5.5675 18.0625 3.1875 C5.1925 3.5175 -7.6775 3.8475 -20.9375 4.1875 C-20.6075 3.1975 -20.2775 2.2075 -19.9375 1.1875 C-13.27789178 -0.06826173 -6.75692827 0.003474 0 0 Z " fill="#C4A71A" transform="translate(391.9375,53.8125)"/>
<path d="M0 0 C1.98 0.99 1.98 0.99 4 2 C4 2.66 4 3.32 4 4 C5.26183105 3.9592334 6.52366211 3.9184668 7.82373047 3.87646484 C12.49370205 3.72828603 17.16398031 3.59353377 21.83447266 3.46289062 C23.85801991 3.40439721 25.88146452 3.34223516 27.90478516 3.27636719 C30.80872917 3.18246209 33.71278367 3.101644 36.6171875 3.0234375 C37.52556366 2.99124115 38.43393982 2.9590448 39.36984253 2.9258728 C40.21056305 2.90570099 41.05128357 2.88552917 41.91748047 2.86474609 C42.65916473 2.84253998 43.400849 2.82033386 44.16500854 2.79745483 C46 3 46 3 48 5 C47 6 47 6 45.20933533 6.12025452 C44.42990067 6.11803391 43.650466 6.11581329 42.84741211 6.11352539 C41.96657455 6.11344986 41.085737 6.11337433 40.1782074 6.11329651 C39.22092239 6.10813522 38.26363739 6.10297394 37.27734375 6.09765625 C36.30213272 6.0962413 35.32692169 6.09482635 34.32215881 6.09336853 C31.19390857 6.08775133 28.06572877 6.07519593 24.9375 6.0625 C22.82226666 6.05748722 20.70703219 6.05292393 18.59179688 6.04882812 C13.39450704 6.03777631 8.19725855 6.02102146 3 6 C2.01 4.02 1.02 2.04 0 0 Z " fill="#B58C24" transform="translate(616,318)"/>
<path d="M0 0 C1.32 0 2.64 0 4 0 C5.4606285 2.64738916 6 3.89448334 6 7 C5.34 7 4.68 7 4 7 C3.34 5.68 2.68 4.36 2 3 C1.73372803 3.50748779 1.46745605 4.01497559 1.19311523 4.5378418 C-4.15195625 14.72073784 -9.51837076 24.88984277 -15 35 C-15.66 34.67 -16.32 34.34 -17 34 C-15.29691418 30.39333161 -13.58654175 26.79016237 -11.875 23.1875 C-11.400625 22.18267578 -10.92625 21.17785156 -10.4375 20.14257812 C-7.1801366 13.29771314 -3.69966404 6.61611001 0 0 Z " fill="#B89028" transform="translate(534,143)"/>
<path d="M0 0 C0 0.66 0 1.32 0 2 C-11.88165341 6.85656936 -22.25282249 7.16530922 -35 7 C-35 6.01 -35 5.02 -35 4 C-34.25878906 4.03480469 -33.51757812 4.06960938 -32.75390625 4.10546875 C-21.4994147 4.39475189 -10.82614218 0 0 0 Z " fill="#B58F18" transform="translate(400,298)"/>
<path d="M0 0 C0.66 0.33 1.32 0.66 2 1 C-3.66666667 12.33333333 -9.33333333 23.66666667 -15 35 C-15.66 35 -16.32 35 -17 35 C-15.62212068 30.54369143 -13.86841186 26.49127302 -11.77734375 22.32421875 C-11.47180069 21.71359085 -11.16625763 21.10296295 -10.85145569 20.47383118 C-10.21040683 19.19473461 -9.56743009 17.91660256 -8.92260742 16.6394043 C-7.9326685 14.67792681 -6.94928399 12.7132658 -5.96679688 10.74804688 C-1.14769955 1.14769955 -1.14769955 1.14769955 0 0 Z " fill="#B68D24" transform="translate(480,170)"/>
<path d="M0 0 C1 3 1 3 -0.00048828 5.14135742 C-0.51853027 5.95451416 -1.03657227 6.7676709 -1.5703125 7.60546875 C-2.1375 8.50716797 -2.7046875 9.40886719 -3.2890625 10.33789062 C-3.89492188 11.27826172 -4.50078125 12.21863281 -5.125 13.1875 C-5.70765625 14.10853516 -6.2903125 15.02957031 -6.890625 15.97851562 C-8.04120354 17.79596536 -9.19767762 19.60969775 -10.36035156 21.41943359 C-11.88292432 23.81574003 -13.34465305 26.24113894 -14.8046875 28.67578125 C-15.89136719 30.32126953 -15.89136719 30.32126953 -17 32 C-17.66 32 -18.32 32 -19 32 C-17.71195907 28.58757685 -16.23160173 25.50871595 -14.35546875 22.3828125 C-13.84306641 21.52816406 -13.33066406 20.67351562 -12.80273438 19.79296875 C-12.26970703 18.91253906 -11.73667969 18.03210938 -11.1875 17.125 C-10.66607422 16.25230469 -10.14464844 15.37960938 -9.60742188 14.48046875 C-6.60090599 9.48837621 -3.45764077 4.69114293 0 0 Z " fill="#BA9522" transform="translate(266,173)"/>
<path d="M0 0 C2.97471581 4.46207371 5.07327602 9.3144132 7.33276367 14.16992188 C8.18643954 15.99772945 9.05309089 17.81902722 9.91992188 19.640625 C10.45552734 20.79046875 10.99113281 21.9403125 11.54296875 23.125 C12.03821045 24.17945313 12.53345215 25.23390625 13.04370117 26.3203125 C14 29 14 29 13 32 C9.33948514 28.33948514 7.75093825 23.16433656 5.66723633 18.47827148 C4.8152009 16.56855368 3.94807369 14.66617846 3.08007812 12.76367188 C2.54447266 11.56419922 2.00886719 10.36472656 1.45703125 9.12890625 C0.96178955 8.02619385 0.46654785 6.92348145 -0.04370117 5.78735352 C-1 3 -1 3 0 0 Z " fill="#B59024" transform="translate(554,180)"/>
<path d="M0 0 C0.66 0 1.32 0 2 0 C1.35643234 3.17430549 0.23839705 5.58412462 -1.3984375 8.37109375 C-1.87796875 9.19287109 -2.3575 10.01464844 -2.8515625 10.86132812 C-3.35429687 11.71146484 -3.85703125 12.56160156 -4.375 13.4375 C-4.87 14.28376953 -5.365 15.13003906 -5.875 16.00195312 C-8.22604622 20.01570449 -10.59592384 24.0177378 -13 28 C-13.99 27.67 -14.98 27.34 -16 27 C-15.43152344 26.05640625 -14.86304688 25.1128125 -14.27734375 24.140625 C-13.49738946 22.84375384 -12.71744203 21.54687854 -11.9375 20.25 C-11.53136475 19.57638428 -11.12522949 18.90276855 -10.70678711 18.20874023 C-8.73916952 14.93631803 -6.79146626 11.65717056 -4.9140625 8.33203125 C-4.30304688 7.25308594 -3.69203125 6.17414063 -3.0625 5.0625 C-2.51722656 4.08410156 -1.97195312 3.10570312 -1.41015625 2.09765625 C-0.71212891 1.05931641 -0.71212891 1.05931641 0 0 Z " fill="#B48E23" transform="translate(213,190)"/>
<path d="M0 0 C0.33 0.66 0.66 1.32 1 2 C-0.45361621 5.97820799 -2.40911378 9.75054081 -4.25 13.5625 C-4.75402344 14.64208984 -5.25804687 15.72167969 -5.77734375 16.83398438 C-6.26847656 17.85943359 -6.75960937 18.88488281 -7.265625 19.94140625 C-7.71711914 20.88701416 -8.16861328 21.83262207 -8.63378906 22.80688477 C-10 25 -10 25 -13 26 C-11.37514086 20.32692038 -8.70727378 15.36270674 -5.9375 10.1875 C-5.47794922 9.31673828 -5.01839844 8.44597656 -4.54492188 7.54882812 C-1.1468153 1.1468153 -1.1468153 1.1468153 0 0 Z " fill="#B68E24" transform="translate(520,90)"/>
<path d="M0 0 C4.45493832 4.03678526 7.36191482 8.44708823 10.375 13.625 C10.83777344 14.388125 11.30054688 15.15125 11.77734375 15.9375 C12.20917969 16.67226562 12.64101562 17.40703125 13.0859375 18.1640625 C13.6744751 19.16107178 13.6744751 19.16107178 14.27490234 20.17822266 C15 22 15 22 14 25 C12.03097554 21.96513208 10.07675909 18.92099473 8.125 15.875 C7.56941406 15.0190625 7.01382813 14.163125 6.44140625 13.28125 C3.67868607 8.95409792 1.30191354 5.02637505 0 0 Z " fill="#B58F23" transform="translate(133,118)"/>
<path d="M0 0 C3.05419297 3.69008172 5.06593095 7.80017954 7.1875 12.0625 C7.55552734 12.78244141 7.92355469 13.50238281 8.30273438 14.24414062 C8.65013672 14.93830078 8.99753906 15.63246094 9.35546875 16.34765625 C9.67153076 16.97679932 9.98759277 17.60594238 10.31323242 18.25415039 C11 20 11 20 11 23 C10.34 23 9.68 23 9 23 C7.29969216 19.54781943 5.61696948 16.08736011 3.9375 12.625 C3.20950195 11.14773438 3.20950195 11.14773438 2.46679688 9.640625 C2.01240234 8.69960938 1.55800781 7.75859375 1.08984375 6.7890625 C0.66566162 5.91975098 0.24147949 5.05043945 -0.19555664 4.15478516 C-0.46102295 3.44370605 -0.72648926 2.73262695 -1 2 C-0.67 1.34 -0.34 0.68 0 0 Z " fill="#B68F24" transform="translate(639,272)"/>
<path d="M0 0 C1.13050781 -0.00257812 2.26101563 -0.00515625 3.42578125 -0.0078125 C6.30903596 0.10958949 8.8865855 0.46287012 11.6875 1.125 C11.6875 1.785 11.6875 2.445 11.6875 3.125 C8.91640693 3.17892397 6.14636182 3.21863455 3.375 3.25 C2.58931641 3.26675781 1.80363281 3.28351562 0.99414062 3.30078125 C0.23681641 3.30722656 -0.52050781 3.31367187 -1.30078125 3.3203125 C-2.34552612 3.33602295 -2.34552612 3.33602295 -3.41137695 3.35205078 C-5.3125 3.125 -5.3125 3.125 -8.3125 1.125 C-5.50346379 -0.2795181 -3.13135492 -0.00709254 0 0 Z " fill="#C8A918" transform="translate(320.3125,53.875)"/>
<path d="M0 0 C3.48512862 1.41624141 4.89454978 2.91697701 6.796875 6.1328125 C7.28027344 6.93847656 7.76367188 7.74414062 8.26171875 8.57421875 C8.75285156 9.41597656 9.24398437 10.25773438 9.75 11.125 C10.25660156 11.97449219 10.76320312 12.82398438 11.28515625 13.69921875 C12.53273193 15.79420433 13.77050095 17.89437186 15 20 C14.34 20.66 13.68 21.32 13 22 C10.82974329 18.5230605 8.66439937 15.04308818 6.5 11.5625 C5.87996094 10.56927734 5.25992188 9.57605469 4.62109375 8.55273438 C4.03457031 7.60849609 3.44804687 6.66425781 2.84375 5.69140625 C2.02680664 4.37958374 2.02680664 4.37958374 1.19335938 3.04125977 C0 1 0 1 0 0 Z " fill="#B69127" transform="translate(147,214)"/>
<path d="M0 0 C2.02826699 1.82544029 3.24287787 3.42036554 4.625 5.8125 C8.11259332 10.49321735 12.80555877 13.40277939 18 16 C18 16.66 18 17.32 18 18 C10.46955881 16.30565073 4.14185571 10.38536088 0 4 C0 2.68 0 1.36 0 0 Z " fill="#B68E20" transform="translate(333,283)"/>
<path d="M0 0 C0.66 0 1.32 0 2 0 C4.15318168 2.75830505 5.87448566 5.82273673 7.6875 8.8125 C8.21150391 9.64587891 8.73550781 10.47925781 9.27539062 11.33789062 C9.76587891 12.14033203 10.25636719 12.94277344 10.76171875 13.76953125 C11.21506592 14.50792236 11.66841309 15.24631348 12.13549805 16.00708008 C13 18 13 18 12 21 C0 3.38297872 0 3.38297872 0 0 Z " fill="#B18C20" transform="translate(176,190)"/>
<path d="M0 0 C0.66 0 1.32 0 2 0 C0.6486755 4.66311976 -1.25792976 8.33319014 -3.9375 12.375 C-4.62714844 13.43460937 -5.31679688 14.49421875 -6.02734375 15.5859375 C-6.67832031 16.38257813 -7.32929688 17.17921875 -8 18 C-8.99 18 -9.98 18 -11 18 C-9.22007744 14.99288171 -7.42417774 11.99563094 -5.625 9 C-5.11710937 8.14148438 -4.60921875 7.28296875 -4.0859375 6.3984375 C-3.59609375 5.58632813 -3.10625 4.77421875 -2.6015625 3.9375 C-2.15119629 3.18339844 -1.70083008 2.42929687 -1.23681641 1.65234375 C-0.82866699 1.10707031 -0.42051758 0.56179688 0 0 Z " fill="#B58E27" transform="translate(467,279)"/>
<path d="M0 0 C0.66 0.66 1.32 1.32 2 2 C0.38352204 4.817481 -1.24458448 7.62806499 -2.875 10.4375 C-3.33519531 11.23994141 -3.79539063 12.04238281 -4.26953125 12.86914062 C-4.71425781 13.63291016 -5.15898437 14.39667969 -5.6171875 15.18359375 C-6.02565918 15.89056396 -6.43413086 16.59753418 -6.85498047 17.32592773 C-8 19 -8 19 -10 20 C-9.46323088 14.9738891 -7.05581499 11.37760591 -4.4375 7.1875 C-4.01275391 6.49462891 -3.58800781 5.80175781 -3.15039062 5.08789062 C-2.10690544 3.38783049 -1.05434704 1.69334524 0 0 Z " fill="#B48F25" transform="translate(241,143)"/>
<path d="M0 0 C0.66 0 1.32 0 2 0 C0.65150163 4.35970831 -1.04907846 8.31341438 -3.125 12.375 C-3.66382813 13.43460938 -4.20265625 14.49421875 -4.7578125 15.5859375 C-5.16773438 16.38257813 -5.57765625 17.17921875 -6 18 C-6.66 17.01 -7.32 16.02 -8 15 C-5.36 10.05 -2.72 5.1 0 0 Z " fill="#B38E21" transform="translate(502,125)"/>
<path d="M0 0 C-6.86330433 4.57553622 -14.10247887 4.22007633 -22 3 C-22 2.67 -22 2.34 -22 2 C-18.89773201 1.46740456 -15.79298602 0.95097025 -12.6875 0.4375 C-11.80642578 0.28603516 -10.92535156 0.13457031 -10.01757812 -0.02148438 C-9.17001953 -0.16005859 -8.32246094 -0.29863281 -7.44921875 -0.44140625 C-6.27879028 -0.63778687 -6.27879028 -0.63778687 -5.0847168 -0.83813477 C-3 -1 -3 -1 0 0 Z " fill="#B58F26" transform="translate(406,335)"/>
<path d="M0 0 C2.70329311 3.29590691 4.41900085 6.75613519 6.1875 10.625 C6.71730469 11.77226563 7.24710938 12.91953125 7.79296875 14.1015625 C9 17 9 17 9 19 C8.34 19 7.68 19 7 19 C5.63301613 16.21443118 4.28365462 13.42068672 2.9375 10.625 C2.35258789 9.43390625 2.35258789 9.43390625 1.75585938 8.21875 C1.39169922 7.45820312 1.02753906 6.69765625 0.65234375 5.9140625 C0.31195068 5.2123291 -0.02844238 4.5105957 -0.37915039 3.78759766 C-0.58403076 3.19769043 -0.78891113 2.6077832 -1 2 C-0.67 1.34 -0.34 0.68 0 0 Z " fill="#B78F29" transform="translate(565,114)"/>
<path d="M0 0 C0.33 0.99 0.66 1.98 1 3 C-0.35390064 5.49634608 -1.73580411 7.77773846 -3.3125 10.125 C-3.93801758 11.09373047 -3.93801758 11.09373047 -4.57617188 12.08203125 C-7.71465164 16.85732582 -7.71465164 16.85732582 -10 18 C-9.35432804 13.91410713 -7.17203433 10.74142833 -5 7.3125 C-4.63132812 6.71888672 -4.26265625 6.12527344 -3.8828125 5.51367188 C-1.16636588 1.16636588 -1.16636588 1.16636588 0 0 Z " fill="#B38D21" transform="translate(285,143)"/>
<path d="M0 0 C5.28 0.66 10.56 1.32 16 2 C16.33 2.99 16.66 3.98 17 5 C11.39 4.01 5.78 3.02 0 2 C0 1.34 0 0.68 0 0 Z " fill="#B79224" transform="translate(344,335)"/>
<path d="M0 0 C3 1 3 1 4.60546875 3.6171875 C5.12753906 4.69226563 5.64960937 5.76734375 6.1875 6.875 C6.71730469 7.94492187 7.24710938 9.01484375 7.79296875 10.1171875 C9 13 9 13 9 16 C8.34 16 7.68 16 7 16 C4.69 10.72 2.38 5.44 0 0 Z " fill="#B58F25" transform="translate(629,254)"/>
<path d="M0 0 C-3.53105961 3.32597281 -6.50235535 3.46770164 -11.25 3.6875 C-12.51328125 3.75324219 -13.7765625 3.81898437 -15.078125 3.88671875 C-16.52445313 3.94279297 -16.52445313 3.94279297 -18 4 C-18 3.01 -18 2.02 -18 1 C-11.97968656 0.39034801 -6.05329744 -0.13451772 0 0 Z " fill="#C2A31A" transform="translate(76,54)"/>
<path d="M0 0 C0.66 0.33 1.32 0.66 2 1 C-7.04472894 9.19187609 -7.04472894 9.19187609 -11 11 C-11.99 10.67 -12.98 10.34 -14 10 C-12.22970554 8.70759488 -10.45874502 7.41610207 -8.6875 6.125 C-7.70136719 5.40570313 -6.71523438 4.68640625 -5.69921875 3.9453125 C-3.82476885 2.5944065 -1.92247007 1.28164671 0 0 Z " fill="#B78F26" transform="translate(440,315)"/>
<path d="M0 0 C4 1 4 1 5.1953125 2.85546875 C5.50210938 3.62503906 5.80890625 4.39460938 6.125 5.1875 C6.45242188 5.99445313 6.77984375 6.80140625 7.1171875 7.6328125 C8.1497683 10.40159112 9.13087456 13.17534231 10 16 C9.34 16 8.68 16 8 16 C5.36 10.72 2.72 5.44 0 0 Z " fill="#B69226" transform="translate(589,262)"/>
<path d="M0 0 C0.66 0 1.32 0 2 0 C3.98 4.62 5.96 9.24 8 14 C7.01 14 6.02 14 5 14 C4.15973604 12.23244474 3.32801278 10.46082737 2.5 8.6875 C2.0359375 7.70136719 1.571875 6.71523437 1.09375 5.69921875 C0 3 0 3 0 0 Z " fill="#B69026" transform="translate(600,190)"/>
<path d="M0 0 C0.33 0.99 0.66 1.98 1 3 C-0.18694945 5.35338373 -1.39859961 7.47932731 -2.8125 9.6875 C-3.18181641 10.29400391 -3.55113281 10.90050781 -3.93164062 11.52539062 C-4.89186245 13.05795292 -5.94013201 14.53458095 -7 16 C-7.66 16 -8.32 16 -9 16 C-7.56691865 12.04093183 -5.66858051 8.71281819 -3.375 5.1875 C-2.74335938 4.21167969 -2.11171875 3.23585937 -1.4609375 2.23046875 C-0.73777344 1.12638672 -0.73777344 1.12638672 0 0 Z " fill="#B48B25" transform="translate(266,173)"/>
<path d="M0 0 C0.66 0 1.32 0 2 0 C3.47309111 2.10019014 4.81309635 4.17767729 6.125 6.375 C6.49753906 6.97828125 6.87007812 7.5815625 7.25390625 8.203125 C10 12.72965316 10 12.72965316 10 15 C5.93875609 13.64625203 5.39684351 11.73741172 3.3125 8.0625 C2.68988281 6.98097656 2.06726563 5.89945312 1.42578125 4.78515625 C0 2 0 2 0 0 Z " fill="#B58F24" transform="translate(123,102)"/>
<path d="M0 0 C0.66 0.66 1.32 1.32 2 2 C0.716961 4.17221487 -0.57572113 6.3375324 -1.875 8.5 C-2.23980469 9.12003906 -2.60460937 9.74007812 -2.98046875 10.37890625 C-3.9322518 11.95367458 -4.96110259 13.48129053 -6 15 C-6.66 15 -7.32 15 -8 15 C-6.62712658 11.30123909 -4.93644547 8.0485524 -2.875 4.6875 C-2.33617187 3.80449219 -1.79734375 2.92148438 -1.2421875 2.01171875 C-0.83226562 1.34785156 -0.42234375 0.68398437 0 0 Z " fill="#B89323" transform="translate(268,98)"/>
<path d="M0 0 C0.66 0 1.32 0 2 0 C3.00460531 2.12282669 4.00355602 4.24833021 5 6.375 C5.556875 7.55835937 6.11375 8.74171875 6.6875 9.9609375 C8 13 8 13 8 15 C7.34 15 6.68 15 6 15 C4.99267601 13.06629769 3.99436712 11.12789694 3 9.1875 C2.443125 8.10855469 1.88625 7.02960938 1.3125 5.91796875 C0 3 0 3 0 0 Z " fill="#B89129" transform="translate(544,71)"/>
<path d="M0 0 C0.66 0 1.32 0 2 0 C3.98 4.29 5.96 8.58 8 13 C7.01 13 6.02 13 5 13 C4.16209211 11.21046815 3.32980604 9.41830305 2.5 7.625 C1.80390625 6.12839844 1.80390625 6.12839844 1.09375 4.6015625 C0 2 0 2 0 0 Z " fill="#B88E28" transform="translate(622,238)"/>
<path d="M0 0 C-1.34156431 2.90779249 -2.86107035 5.2517899 -4.9375 7.6875 C-5.44152344 8.28949219 -5.94554687 8.89148438 -6.46484375 9.51171875 C-8 11 -8 11 -11 12 C-9.56438314 8.81293058 -7.79733671 6.37830895 -5.5 3.75 C-4.8915625 3.04359375 -4.283125 2.3371875 -3.65625 1.609375 C-2 0 -2 0 0 0 Z " fill="#B58C23" transform="translate(426,278)"/>
<path d="M0 0 C1.485 0.99 1.485 0.99 3 2 C5.1270431 2.27441372 5.1270431 2.27441372 7.44921875 2.1953125 C8.29677734 2.18886719 9.14433594 2.18242187 10.01757812 2.17578125 C10.89865234 2.15902344 11.77972656 2.14226562 12.6875 2.125 C13.58017578 2.11597656 14.47285156 2.10695313 15.39257812 2.09765625 C17.59532314 2.07409748 19.79752588 2.04120329 22 2 C22 2.66 22 3.32 22 4 C15.07 4 8.14 4 1 4 C0.67 2.68 0.34 1.36 0 0 Z " fill="#B4871B" transform="translate(183,270)"/>
<path d="M0 0 C0.66 0.66 1.32 1.32 2 2 C0.02 5.96 -1.96 9.92 -4 14 C-4.66 14 -5.32 14 -6 14 C-4.45941767 8.98491285 -2.97068161 4.3852919 0 0 Z " fill="#B88F28" transform="translate(499,214)"/>
<path d="M0 0 C0 3.67034745 -1.0752892 5.0999431 -3 8.1875 C-3.556875 9.08855469 -4.11375 9.98960937 -4.6875 10.91796875 C-5.120625 11.60503906 -5.55375 12.29210937 -6 13 C-6.66 12.67 -7.32 12.34 -8 12 C-7.04855402 10.18387512 -6.08863067 8.37218919 -5.125 6.5625 C-4.59132812 5.55316406 -4.05765625 4.54382813 -3.5078125 3.50390625 C-2 1 -2 1 0 0 Z " fill="#B58D27" transform="translate(228,167)"/>
<path d="M0 0 C0.66 0 1.32 0 2 0 C0.68448876 4.60428934 -1.09196486 8.18320388 -4 12 C-4.66 12 -5.32 12 -6 12 C-4.43358249 7.69235185 -2.31663844 3.93828536 0 0 Z " fill="#B58F25" transform="translate(257,116)"/>
<path d="M0 0 C0.66 0 1.32 0 2 0 C0.68139111 4.61513112 -1.21355437 8.09897612 -4 12 C-4.66 11.34 -5.32 10.68 -6 10 C-5.05065487 8.32819726 -4.09026687 6.66266064 -3.125 5 C-2.59132813 4.071875 -2.05765625 3.14375 -1.5078125 2.1875 C-1.01023437 1.465625 -0.51265625 0.74375 0 0 Z " fill="#B48E23" transform="translate(279,79)"/>
<path d="M0 0 C0 0.66 0 1.32 0 2 C-2.40545638 3.20272819 -3.94996953 3.10071472 -6.625 3.0625 C-7.85089844 3.04896484 -7.85089844 3.04896484 -9.1015625 3.03515625 C-10.04128906 3.01775391 -10.04128906 3.01775391 -11 3 C-11.33 2.34 -11.66 1.68 -12 1 C-7.95858806 0.36605303 -4.0934693 -0.12404452 0 0 Z " fill="#B79120" transform="translate(386,284)"/>
<path d="M0 0 C0.33 0.66 0.66 1.32 1 2 C-0.43359375 4.6015625 -0.43359375 4.6015625 -2.4375 7.625 C-3.42556641 9.12933594 -3.42556641 9.12933594 -4.43359375 10.6640625 C-4.95050781 11.43492187 -5.46742188 12.20578125 -6 13 C-6.33 12.01 -6.66 11.02 -7 10 C-5.8203125 7.7734375 -5.8203125 7.7734375 -4.125 5.375 C-3.57070312 4.57835937 -3.01640625 3.78171875 -2.4453125 2.9609375 C-1 1 -1 1 0 0 Z " fill="#B38F20" transform="translate(229,233)"/>
<path d="M0 0 C3.49107379 1.16369126 3.85222763 1.88973538 5.6875 4.9375 C6.34298828 6.00291016 6.34298828 6.00291016 7.01171875 7.08984375 C8 9 8 9 8 11 C4.50892621 9.83630874 4.14777237 9.11026462 2.3125 6.0625 C1.87550781 5.35222656 1.43851562 4.64195312 0.98828125 3.91015625 C0 2 0 2 0 0 Z " fill="#B48F24" transform="translate(117,165)"/>
<path d="M0 0 C2.63861452 3.18453477 5.1832328 6.27084628 7 10 C6.57421875 12.15234375 6.57421875 12.15234375 6 14 C4.98915735 12.42356682 3.99169489 10.8385483 3 9.25 C2.443125 8.36828125 1.88625 7.4865625 1.3125 6.578125 C0 4 0 4 0 0 Z " fill="#B18F21" transform="translate(114,85)"/>
<path d="M0 0 C3.49107379 1.16369126 3.85222763 1.88973538 5.6875 4.9375 C6.34298828 6.00291016 6.34298828 6.00291016 7.01171875 7.08984375 C8 9 8 9 8 11 C4.50892621 9.83630874 4.14777237 9.11026462 2.3125 6.0625 C1.87550781 5.35222656 1.43851563 4.64195312 0.98828125 3.91015625 C0 2 0 2 0 0 Z " fill="#B59025" transform="translate(140,202)"/>
<path d="M0 0 C7 8.44827586 7 8.44827586 7 12 C6.34 12 5.68 12 5 12 C3.02 8.37 1.04 4.74 -1 1 C-0.67 0.67 -0.34 0.34 0 0 Z " fill="#B48E20" transform="translate(159,160)"/>
<path d="M0 0 C0.99 0.33 1.98 0.66 3 1 C0.69 4.63 -1.62 8.26 -4 12 C-5 9 -5 9 -4.00390625 6.73828125 C-3.52824219 5.93777344 -3.05257812 5.13726562 -2.5625 4.3125 C-2.08941406 3.50425781 -1.61632812 2.69601563 -1.12890625 1.86328125 C-0.75636719 1.24839844 -0.38382813 0.63351563 0 0 Z " fill="#B88F25" transform="translate(248,131)"/>
<path d="M0 0 C3 1 3 1 4.75 3.8125 C6.05483179 7.13982105 6.02866653 7.79584277 5 11 C4.16151196 9.54462432 3.32936066 8.08559627 2.5 6.625 C1.80390625 5.40683594 1.80390625 5.40683594 1.09375 4.1640625 C0 2 0 2 0 0 Z " fill="#B78F28" transform="translate(551,87)"/>
<path d="M0 0 C0.99 0.33 1.98 0.66 3 1 C0.36 3.64 -2.28 6.28 -5 9 C-5.33 8.01 -5.66 7.02 -6 6 C-4.02 4.02 -2.04 2.04 0 0 Z " fill="#B98E26" transform="translate(292,62)"/>
<path d="M0 0 C3.7910119 1.44950455 7.3874638 3.15172566 11 5 C10.34 5.66 9.68 6.32 9 7 C5.7 5.35 2.4 3.7 -1 2 C-0.67 1.34 -0.34 0.68 0 0 Z " fill="#B69024" transform="translate(323,326)"/>
<path d="M0 0 C0.66 0.33 1.32 0.66 2 1 C1.05065487 2.67180274 0.09026687 4.33733936 -0.875 6 C-1.40867188 6.928125 -1.94234375 7.85625 -2.4921875 8.8125 C-2.98976562 9.534375 -3.48734375 10.25625 -4 11 C-4.66 11 -5.32 11 -6 11 C-4.54955729 6.89041233 -2.48889248 3.56741255 0 0 Z " fill="#B38A21" transform="translate(216,253)"/>
<path d="M0 0 C0.66 0.66 1.32 1.32 2 2 C0.02 4.97 -1.96 7.94 -4 11 C-4.66 10.67 -5.32 10.34 -6 10 C-4.02 6.7 -2.04 3.4 0 0 Z " fill="#B38E23" transform="translate(245,206)"/>
<path d="M0 0 C3 1 3 1 4.16796875 3.06640625 C4.50441406 3.89011719 4.84085938 4.71382812 5.1875 5.5625 C5.53167969 6.38878906 5.87585938 7.21507812 6.23046875 8.06640625 C6.48441406 8.70449219 6.73835937 9.34257812 7 10 C6.01 10 5.02 10 4 10 C2.68 6.7 1.36 3.4 0 0 Z " fill="#B78E29" transform="translate(585,160)"/>
<path d="M0 0 C2.32472205 2.85306797 3.7508258 5.54074837 5 9 C4.01 9 3.02 9 2 9 C0.4375 6.1875 0.4375 6.1875 -1 3 C-0.67 2.01 -0.34 1.02 0 0 Z " fill="#B59122" transform="translate(652,299)"/>
<path d="M0 0 C0.66 0.33 1.32 0.66 2 1 C0.90931332 4.77545388 0.0916909 7.47043472 -3 10 C-3.33 9.34 -3.66 8.68 -4 8 C-3.22265625 6.0546875 -3.22265625 6.0546875 -2.0625 3.875 C-1.49208984 2.78832031 -1.49208984 2.78832031 -0.91015625 1.6796875 C-0.60980469 1.12539062 -0.30945313 0.57109375 0 0 Z " fill="#C8A81D" transform="translate(453,223)"/>
<path d="M0 0 C0.66 0.33 1.32 0.66 2 1 C0.02 3.97 -1.96 6.94 -4 10 C-4.66 9.67 -5.32 9.34 -6 9 C-4.02 6.03 -2.04 3.06 0 0 Z " fill="#B68D25" transform="translate(238,218)"/>
<path d="M0 0 C1.28222189 3.03070628 0.98589446 4.03596914 -0.25 7.1875 C-2 10 -2 10 -5 11 C-3.77472971 6.94718288 -2.30119506 3.55639236 0 0 Z " fill="#C19D20" transform="translate(494,141)"/>
<path d="M0 0 C0.75 1.6875 0.75 1.6875 1 4 C-0.8125 6.75 -0.8125 6.75 -3 9 C-3.66 9 -4.32 9 -5 9 C-3.7508258 5.54074837 -2.32472205 2.85306797 0 0 Z " fill="#C29E1D" transform="translate(430,269)"/>
<path d="M0 0 C0.66 0.33 1.32 0.66 2 1 C2 1.66 2 2.32 2 3 C1.01 3 0.02 3 -1 3 C-1.103125 3.78375 -1.20625 4.5675 -1.3125 5.375 C-2 8 -2 8 -5 10 C-3.84414715 6.08788267 -2.64465038 3.1254959 0 0 Z " fill="#BC9919" transform="translate(537,55)"/>
<path d="M0 0 C2.94956528 1.36944102 5.52468811 2.87830409 8 5 C8 5.66 8 6.32 8 7 C4.66272214 5.82744291 2.22562513 4.81131596 0 2 C0 1.34 0 0.68 0 0 Z " fill="#B38E22" transform="translate(313,319)"/>
<path d="M0 0 C0.66 0 1.32 0 2 0 C6 6.75 6 6.75 6 9 C3 8 3 8 1.3125 5.0625 C0 2 0 2 0 0 Z " fill="#B58F24" transform="translate(297,299)"/>
<path d="M0 0 C0.66 0 1.32 0 2 0 C3.65 2.97 5.3 5.94 7 9 C6.01 9 5.02 9 4 9 C0 2.25 0 2.25 0 0 Z " fill="#B99129" transform="translate(177,261)"/>
<path d="M0 0 C0.99 0.33 1.98 0.66 3 1 C4.6875 4.5625 4.6875 4.5625 6 8 C5.01 8 4.02 8 3 8 C0 2.25 0 2.25 0 0 Z " fill="#B58E29" transform="translate(617,228)"/>
<path d="M0 0 C1 3 1 3 -0.4375 6.1875 C-1.2109375 7.5796875 -1.2109375 7.5796875 -2 9 C-2.66 8.67 -3.32 8.34 -4 8 C-2.25 2.25 -2.25 2.25 0 0 Z " fill="#AE8F20" transform="translate(510,193)"/>
<path d="M0 0 C0.66 0 1.32 0 2 0 C0.125 5.75 0.125 5.75 -1 8 C-1.99 7.67 -2.98 7.34 -4 7 C-2.68 4.69 -1.36 2.38 0 0 Z " fill="#C6A51F" transform="translate(517,178)"/>
<path d="M0 0 C3.08089673 2.77280706 4.68775452 5.06326356 6 9 C3 8 3 8 1.3125 5.625 C0 3 0 3 0 0 Z " fill="#B89228" transform="translate(170,249)"/>
<path d="M0 0 C0.66 0.66 1.32 1.32 2 2 C1.01 4.31 0.02 6.62 -1 9 C-1.66 9 -2.32 9 -3 9 C-2.44271087 5.65626525 -1.64826111 2.96687001 0 0 Z " fill="#AF8E1C" transform="translate(457,215)"/>
<path d="M0 0 C0.66 0 1.32 0 2 0 C5 5.75 5 5.75 5 8 C2 7 2 7 0.8125 5.125 C0 3 0 3 0 0 Z " fill="#B38E24" transform="translate(544,161)"/>
<path d="M0 0 C3.08089673 2.77280706 4.68775452 5.06326356 6 9 C3.5067466 8.00269864 2.22532561 7.34925469 0.75 5.0625 C0 3 0 3 0 0 Z " fill="#BA9325" transform="translate(103,141)"/>
<path d="M0 0 C0.33 0.99 0.66 1.98 1 3 C-0.32 4.32 -1.64 5.64 -3 7 C-3.99 6.67 -4.98 6.34 -6 6 C-4.02 4.02 -2.04 2.04 0 0 Z " fill="#B58A28" transform="translate(448,307)"/>
<path d="M0 0 C0.75 1.6875 0.75 1.6875 1 4 C-0.9375 6.75 -0.9375 6.75 -3 9 C-3 4.72290301 -2.29379749 3.44069624 0 0 Z " fill="#C09B20" transform="translate(218,182)"/>
<path d="M0 0 C2.25245881 2.68841859 3.88213958 4.64641875 5 8 C4.01 8.495 4.01 8.495 3 9 C0.70620251 5.55930376 0 4.27709699 0 0 Z " fill="#B59027" transform="translate(165,240)"/>
<path d="M0 0 C2.66735273 2.48952921 4.55746343 4.63408134 6 8 C5.01 8 4.02 8 3 8 C0.89229241 5.11165997 0 3.61537605 0 0 Z " fill="#B58F25" transform="translate(111,154)"/>
</svg>
