<?xml version="1.0" encoding="UTF-8"?>
<svg version="1.1" xmlns="http://www.w3.org/2000/svg" width="350" height="350">
<path d="M0 0 C17.14345399 5.7173028 36.85908584 3.61454 53.28491211 -3.41381836 C60.02530747 -5.43799197 64.75818701 -3.76676917 70.65991211 -0.62084961 C71.36277344 -0.25515869 72.06563477 0.11053223 72.78979492 0.48730469 C97.84951648 13.77471797 116.2959421 35.99619503 124.93969727 63.01953125 C128.71612624 75.49127906 129.9999003 87.64120652 130.09741211 100.62915039 C130.11155151 102.09034302 130.11155151 102.09034302 130.12597656 103.58105469 C130.12170654 104.49024658 130.11743652 105.39943848 130.11303711 106.33618164 C130.11078125 107.1519165 130.10852539 107.96765137 130.10620117 108.80810547 C129.84741211 110.81665039 129.84741211 110.81665039 127.84741211 112.81665039 C125.07104082 113.01443336 122.3943093 113.08585788 119.61671448 113.07061768 C118.75549278 113.07373766 117.89427108 113.07685764 117.00695175 113.08007216 C114.10417545 113.08808685 111.2016062 113.08171505 108.29882812 113.07543945 C106.22460812 113.0781478 104.15038908 113.08170784 102.07617188 113.08605957 C96.42955091 113.09520506 90.78300273 113.09163029 85.13638043 113.0853014 C79.23739752 113.08025188 73.33842101 113.08492999 67.43943787 113.08807373 C57.5304146 113.09171673 47.6214211 113.08690584 37.71240234 113.07739258 C26.24486039 113.0665104 14.77738955 113.07003056 3.30984932 113.08104539 C-6.52200984 113.09011235 -16.35384755 113.09140635 -26.18570954 113.08616805 C-32.06388106 113.08304471 -37.94201913 113.08264892 -43.82018852 113.08924103 C-49.346542 113.09500516 -54.87280352 113.09103469 -60.39914703 113.07945251 C-62.43132181 113.0768008 -64.46350429 113.07757968 -66.49567604 113.08197784 C-69.26219183 113.08741467 -72.02840997 113.08062185 -74.79490662 113.07061768 C-76.01123761 113.07730984 -76.01123761 113.07730984 -77.25214094 113.0841372 C-81.08515803 113.05711259 -82.8857131 112.99456692 -86.15258789 110.81665039 C-86.54077148 108.87158203 -86.54077148 108.87158203 -86.55102539 106.47680664 C-86.55714844 105.58799805 -86.56327148 104.69918945 -86.56958008 103.78344727 C-86.54879395 102.34582031 -86.54879395 102.34582031 -86.52758789 100.87915039 C-86.51888672 99.89366211 -86.51018555 98.90817383 -86.5012207 97.89282227 C-85.87986255 66.17299801 -74.68060809 38.64394888 -52.25732422 16.23510742 C-36.48587183 1.27259886 -20.85252367 -7.02784031 0 0 Z " fill="#2C3033" transform="translate(153.152587890625,194.183349609375)"/>
<path d="M0 0 C1.53779552 1.48260547 3.06018984 2.98144865 4.5625 4.5 C5.18511719 5.08910156 5.80773437 5.67820312 6.44921875 6.28515625 C19.27467562 19.39882563 23.93475326 38.78863223 23.77734375 56.5234375 C22.80742148 74.47581691 14.97904595 92.4767287 1.68359375 104.8203125 C-15.33340164 118.29601787 -33.83561423 124.17381752 -55.4375 122.5 C-73.89703273 120.18529904 -90.52717777 110.90890991 -102 96.328125 C-113.86856477 80.43566994 -118.64262744 61.2874341 -115.8984375 41.640625 C-112.50010514 23.04315782 -103.84687464 6.78466464 -88.125 -4.25 C-60.86358413 -22.66010264 -25.11095135 -21.96259944 0 0 Z " fill="#2D3133" transform="translate(221.4375,60.5)"/>
<path d="M0 0 C0.66 0.33 1.32 0.66 2 1 C1.071875 1.886875 0.14375 2.77375 -0.8125 3.6875 C-3.40073591 6.25137605 -5.15079024 8.85634341 -7 12 C-7.66 12 -8.32 12 -9 12 C-9.33 12.99 -9.66 13.98 -10 15 C-10.66 15 -11.32 15 -12 15 C-12 15.99 -12 16.98 -12 18 C-13.32 18 -14.64 18 -16 18 C-14.6415798 14.95667235 -13.11536976 12.87690849 -10.7421875 10.546875 C-10.11699219 9.928125 -9.49179688 9.309375 -8.84765625 8.671875 C-8.19667969 8.03765625 -7.54570313 7.4034375 -6.875 6.75 C-6.21628906 6.1003125 -5.55757812 5.450625 -4.87890625 4.78125 C-3.25703357 3.18288273 -1.6306719 1.58938103 0 0 Z " fill="#757779" transform="translate(107,205)"/>
<path d="M0 0 C4.22489602 0.53280216 6.54080716 1.87678199 9.8125 4.5625 C10.60269531 5.20316406 11.39289063 5.84382812 12.20703125 6.50390625 C12.79871094 6.99761719 13.39039063 7.49132812 14 8 C12.1875 8.625 12.1875 8.625 10 9 C9.01 8.34 8.02 7.68 7 7 C5.0103005 6.60986284 3.00980131 6.26797351 1 6 C1.20625 5.38125 1.4125 4.7625 1.625 4.125 C1.74875 3.42375 1.8725 2.7225 2 2 C1.34 1.34 0.68 0.68 0 0 Z " fill="#626264" transform="translate(233,201)"/>
<path d="M0 0 C2.08343904 2.50012684 3.71433305 5.14195318 5.25 8 C5.60578125 8.66 5.9615625 9.32 6.328125 10 C7.13384316 12.39841683 6.81998065 13.64518377 6 16 C5.34 16 4.68 16 4 16 C-1.31034483 3.93103448 -1.31034483 3.93103448 0 0 Z " fill="#4C4E50" transform="translate(268,236)"/>
<path d="M0 0 C1.11375 0.309375 2.2275 0.61875 3.375 0.9375 C8.20509012 2.15800664 13.04290069 2.61399637 18 3 C17.01 3.495 17.01 3.495 16 4 C16 4.66 16 5.32 16 6 C10.35966205 5.50523351 6.05786581 4.58054378 1 2 C0.67 1.34 0.34 0.68 0 0 Z " fill="#424343" transform="translate(148,176)"/>
<path d="M0 0 C2.4375 0.375 2.4375 0.375 5 1 C5.33 1.66 5.66 2.32 6 3 C6.66 3.33 7.32 3.66 8 4 C8 4.99 8 5.98 8 7 C7.01 7.33 6.02 7.66 5 8 C2.7363436 6.59554165 0.9791315 4.8032087 -1 3 C-0.67 2.01 -0.34 1.02 0 0 Z " fill="#373A3C" transform="translate(126,160)"/>
<path d="M0 0 C3.48331435 3.01887244 4.79157144 5.56909529 6 10 C4.68 10.99 3.36 11.98 2 13 C1.26167392 8.67551867 0.60825035 4.34464536 0 0 Z " fill="#4B4D4F" transform="translate(231,72)"/>
<path d="M0 0 C3.59391114 1.33488128 6.75490696 2.96022723 10 5 C8.3125 6.125 8.3125 6.125 6 7 C3.3125 6.4375 3.3125 6.4375 1 5 C0.1875 2.375 0.1875 2.375 0 0 Z " fill="#4D4F51" transform="translate(206,51)"/>
<path d="M0 0 C1.0013988 3.00419641 1.51421457 5.87709365 2 9 C-0.97 8.505 -0.97 8.505 -4 8 C-2.25 2.25 -2.25 2.25 0 0 Z " fill="#5B5B5C" transform="translate(85,230)"/>
<path d="M0 0 C0 0.66 0 1.32 0 2 C0.66 2.33 1.32 2.66 2 3 C1.01 3.99 0.02 4.98 -1 6 C-3.46800047 4.84826645 -5.04783565 3.95216435 -7 2 C-4.35261084 0.5393715 -3.10551666 0 0 0 Z " fill="#4F5051" transform="translate(130,193)"/>
<path d="M0 0 C2.475 0.495 2.475 0.495 5 1 C5.33 2.65 5.66 4.3 6 6 C4.35 5.67 2.7 5.34 1 5 C0.67 3.35 0.34 1.7 0 0 Z M-2 5 C-0.68 5.33 0.64 5.66 2 6 C1.01 6.495 1.01 6.495 0 7 C-0.66 6.34 -1.32 5.68 -2 5 Z " fill="#272B2E" transform="translate(211,56)"/>
<path d="M0 0 C5.28 0.33 10.56 0.66 16 1 C16 1.33 16 1.66 16 2 C12.37 2.66 8.74 3.32 5 4 C5 3.01 5 2.02 5 1 C3.35 1 1.7 1 0 1 C0 0.67 0 0.34 0 0 Z " fill="#727475" transform="translate(171,43)"/>
<path d="M0 0 C2 1 2 1 3 3 C0.75 4.625 0.75 4.625 -2 6 C-4.3125 5.1875 -4.3125 5.1875 -6 4 C-4.02 2.68 -2.04 1.36 0 0 Z " fill="#636567" transform="translate(121,196)"/>
<path d="M0 0 C4.05281712 1.22527029 7.44360764 2.69880494 11 5 C10.34 5.66 9.68 6.32 9 7 C9 6.34 9 5.68 9 5 C8.01 5.33 7.02 5.66 6 6 C3.375 4.75 3.375 4.75 1 3 C0.67 2.01 0.34 1.02 0 0 Z " fill="#747A7A" transform="translate(221,193)"/>
<path d="M0 0 C2.4375 0.375 2.4375 0.375 5 1 C5.33 1.66 5.66 2.32 6 3 C4.68 3.33 3.36 3.66 2 4 C2 4.66 2 5.32 2 6 C1.34 6 0.68 6 0 6 C0 5.34 0 4.68 0 4 C-0.66 3.67 -1.32 3.34 -2 3 C-1.34 2.01 -0.68 1.02 0 0 Z " fill="#26292B" transform="translate(89,226)"/>
<path d="M0 0 C1.98 0 3.96 0 6 0 C6.33 1.65 6.66 3.3 7 5 C6.01 5.33 5.02 5.66 4 6 C2.68 4.02 1.36 2.04 0 0 Z " fill="#4B4D4F" transform="translate(118,154)"/>
<path d="M0 0 C3.73639216 1.24546405 4.18756513 2.63404953 6 6 C4.02 6 2.04 6 0 6 C0 4 0 2 0 0 Z " fill="#28292B" transform="translate(252,217)"/>
<path d="M0 0 C2.475 0.495 2.475 0.495 5 1 C4.67 2.98 4.34 4.96 4 7 C3.01 6.34 2.02 5.68 1 5 C1.33 4.01 1.66 3.02 2 2 C1.34 1.34 0.68 0.68 0 0 Z " fill="#49484D" transform="translate(233,201)"/>
<path d="M0 0 C0.99 0.33 1.98 0.66 3 1 C3 1.66 3 2.32 3 3 C-1.38461538 6 -1.38461538 6 -4 6 C-2.84826645 3.53199953 -1.95216435 1.95216435 0 0 Z " fill="#28292C" transform="translate(129,61)"/>
<path d="M0 0 C1.65 0.33 3.3 0.66 5 1 C4.01 1.495 4.01 1.495 3 2 C2.34786708 4.02463255 2.34786708 4.02463255 2 6 C1.01 4.68 0.02 3.36 -1 2 C-0.67 1.34 -0.34 0.68 0 0 Z " fill="#545658" transform="translate(126,160)"/>
<path d="M0 0 C0.66 0.33 1.32 0.66 2 1 C1.6875 3.375 1.6875 3.375 1 6 C0.01 6.66 -0.98 7.32 -2 8 C-1.125 1.125 -1.125 1.125 0 0 Z " fill="#54595A" transform="translate(228,153)"/>
</svg>
